<svg width="305" height="238" viewBox="0 0 305 238" fill="none" xmlns="http://www.w3.org/2000/svg">
<g filter="url(#filter0_f_15_4632)">
<ellipse cx="150.966" cy="134.414" rx="63.6261" ry="18.8572" fill="url(#paint0_linear_15_4632)" fill-opacity="0.4"/>
<path d="M213.894 134.414C213.894 136.676 212.344 138.974 209.192 141.183C206.059 143.378 201.48 145.383 195.758 147.079C184.325 150.468 168.489 152.573 150.966 152.573C133.444 152.573 117.608 150.468 106.174 147.079C100.453 145.383 95.8742 143.378 92.7412 141.183C89.5885 138.974 88.0387 136.676 88.0387 134.414C88.0387 132.153 89.5885 129.855 92.7412 127.646C95.8742 125.451 100.453 123.446 106.174 121.75C117.608 118.361 133.444 116.256 150.966 116.256C168.489 116.256 184.325 118.361 195.758 121.75C201.48 123.446 206.059 125.451 209.192 127.646C212.344 129.855 213.894 132.153 213.894 134.414Z" stroke="url(#paint1_linear_15_4632)" stroke-width="1.39662"/>
</g>
<g filter="url(#filter1_f_15_4632)">
<path d="M214.592 134.414C214.592 144.829 186.106 153.272 150.966 153.272" stroke="url(#paint2_linear_15_4632)" stroke-width="3.49155"/>
</g>
<ellipse cx="150.967" cy="149.71" rx="58.6172" ry="21.84" fill="url(#paint3_linear_15_4632)"/>
<path fill-rule="evenodd" clip-rule="evenodd" d="M150.966 172.08C184.126 172.08 211.007 162.065 211.007 149.71C211.007 137.355 184.126 127.34 150.966 127.34C117.807 127.34 90.9263 137.355 90.9263 149.71C90.9263 162.065 117.807 172.08 150.966 172.08ZM150.967 171.55C183.34 171.55 209.584 161.772 209.584 149.71C209.584 137.648 183.34 127.87 150.967 127.87C118.594 127.87 92.3498 137.648 92.3498 149.71C92.3498 161.772 118.594 171.55 150.967 171.55Z" fill="url(#paint4_linear_15_4632)"/>
<g filter="url(#filter2_f_15_4632)">
<path d="M151.248 195.816L42.8654 42.8865L262.135 42.8865L151.248 195.816Z" fill="url(#paint5_linear_15_4632)" fill-opacity="0.6"/>
</g>
<g filter="url(#filter3_df_15_4632)">
<path fill-rule="evenodd" clip-rule="evenodd" d="M150.966 172.08C184.126 172.08 211.007 162.065 211.007 149.71C211.007 137.355 184.126 127.34 150.966 127.34C117.807 127.34 90.9263 137.355 90.9263 149.71C90.9263 162.065 117.807 172.08 150.966 172.08ZM150.967 171.647C183.34 171.647 209.584 161.826 209.584 149.71C209.584 137.594 183.34 127.772 150.967 127.772C118.594 127.772 92.3498 137.594 92.3498 149.71C92.3498 161.826 118.594 171.647 150.967 171.647Z" fill="url(#paint6_linear_15_4632)" shape-rendering="crispEdges"/>
</g>
<g filter="url(#filter4_f_15_4632)">
<path fill-rule="evenodd" clip-rule="evenodd" d="M150.966 160.65C175.056 160.65 194.584 154.461 194.584 146.828C194.584 139.194 175.056 133.006 150.966 133.006C126.876 133.006 107.347 139.194 107.347 146.828C107.347 154.461 126.876 160.65 150.966 160.65ZM150.966 159.62C173.261 159.62 191.334 153.893 191.334 146.828C191.334 139.763 173.261 134.036 150.966 134.036C128.671 134.036 110.597 139.763 110.597 146.828C110.597 153.893 128.671 159.62 150.966 159.62Z" fill="url(#paint7_linear_15_4632)"/>
</g>
<g filter="url(#filter5_d_15_4632)">
<path fill-rule="evenodd" clip-rule="evenodd" d="M150.966 160.65C175.056 160.65 194.584 154.461 194.584 146.828C194.584 139.194 175.056 133.006 150.966 133.006C126.876 133.006 107.347 139.194 107.347 146.828C107.347 154.461 126.876 160.65 150.966 160.65ZM150.966 159.62C173.261 159.62 191.334 153.893 191.334 146.828C191.334 139.763 173.261 134.036 150.966 134.036C128.671 134.036 110.597 139.763 110.597 146.828C110.597 153.893 128.671 159.62 150.966 159.62Z" fill="url(#paint8_linear_15_4632)" shape-rendering="crispEdges"/>
</g>
<path fill-rule="evenodd" clip-rule="evenodd" d="M211.182 149.846C211.183 149.8 211.183 149.755 211.183 149.71C211.205 149.654 211.228 149.596 211.251 149.538L214.126 136.7C210.319 146.037 183.491 153.272 150.963 153.272C118.005 153.272 90.8996 145.845 87.6607 136.33L90.8191 150.09L90.8201 150.092C93.8731 163.381 117.797 172.08 150.956 172.08C180.381 172.08 205.01 164.193 210.184 153.784L210.692 152.035L211.182 149.846Z" fill="url(#paint9_linear_15_4632)" fill-opacity="0.5"/>
<g filter="url(#filter6_f_15_4632)">
<path fill-rule="evenodd" clip-rule="evenodd" d="M174.468 144.93C174.468 149.043 163.946 152.377 150.967 152.377C137.988 152.377 127.466 149.043 127.466 144.93C127.466 140.817 137.988 137.483 150.967 137.483C162.262 137.483 171.695 140.008 173.954 143.373H172.091C169.761 140.528 161.187 138.417 150.966 138.417C138.954 138.417 129.216 141.333 129.216 144.93C129.216 148.526 138.954 151.442 150.966 151.442C162.978 151.442 172.716 148.526 172.716 144.93L174.468 144.93Z" fill="url(#paint10_linear_15_4632)"/>
</g>
<g filter="url(#filter7_f_15_4632)">
<path d="M169.923 144.93C169.923 147.957 161.436 150.411 150.967 150.411C140.497 150.411 132.01 147.957 132.01 144.93C132.01 141.902 140.497 139.448 150.967 139.448C161.436 139.448 169.923 141.902 169.923 144.93Z" fill="#c9fa00"/>
</g>
<g filter="url(#filter8_f_15_4632)">
<path d="M150.949 176.089L91.5933 71.0202L210.002 71.0202L150.949 176.089Z" fill="url(#paint11_linear_15_4632)"/>
</g>
<g filter="url(#filter9_f_15_4632)">
<path fill-rule="evenodd" clip-rule="evenodd" d="M208.321 152.707L208.613 146.512C207.405 147.309 206.064 148.079 204.602 148.819C204.472 150.768 204.318 153.088 204.178 155.444C205.721 154.565 207.107 153.651 208.321 152.707ZM199.379 157.841L199.701 151.007C197.745 151.78 195.642 152.51 193.406 153.19C193.255 155.528 193.103 158.015 192.994 160.298C195.278 159.53 197.412 158.709 199.379 157.841ZM187.471 161.971L187.81 154.721C185.099 155.386 182.237 155.986 179.247 156.512C179.084 159.021 178.923 161.652 178.817 163.99C181.849 163.392 184.741 162.716 187.471 161.971Z" fill="#c9fa00" fill-opacity="0.1"/>
</g>
<g filter="url(#filter10_f_15_4632)">
<path d="M155.145 144.791C155.145 145.742 153.274 146.512 150.967 146.512C148.66 146.512 146.79 145.742 146.79 144.791C146.79 143.84 148.66 143.07 150.967 143.07C153.274 143.07 155.145 143.84 155.145 144.791Z" fill="#c9fa00"/>
</g>
<g filter="url(#filter11_f_15_4632)">
<path d="M148.096 159.45C130.588 159.173 114.114 155.359 107.536 153.259L106.871 158.784C110.403 160.694 114.452 162.123 120.332 163.309L120.55 161.713C122.041 162.092 126.499 162.623 128.541 162.841L128.712 160.444C135.577 161.689 143.625 161.878 147.839 161.977L147.896 161.978C147.893 161.789 148.035 160.827 148.096 159.45Z" fill="#c9fa00" fill-opacity="0.1"/>
</g>
<path fill-rule="evenodd" clip-rule="evenodd" d="M140.635 72.7898C137.345 70.2629 133.881 66.2766 133.258 64.1563C130.161 68.6634 129.245 75.5887 129.491 81.1429C124.209 87.0578 120.869 94.7226 120.869 102.61C120.869 104.188 120.989 105.738 121.22 107.251C123.019 110.532 127.514 113.571 130.891 115.502C135.394 118.077 140.383 118.554 144.343 115.401L144.386 115.368L144.432 115.338C145.844 114.432 146.684 112.701 146.9 110.813C147.119 108.895 146.658 107.16 145.89 106.315L145.812 106.229L145.755 106.128C145.04 104.88 143.629 104.419 142.109 104.944C140.588 105.47 138.964 107.025 138.306 109.835L137.988 111.193L136.762 110.529C134.573 109.344 133.654 107.213 133.597 105.092C133.542 103 134.31 100.811 135.617 99.24L137.254 100.601C136.278 101.776 135.684 103.46 135.726 105.036C135.755 106.103 136.068 107.068 136.708 107.807C137.698 105.27 139.469 103.604 141.413 102.931C143.694 102.143 146.219 102.765 147.544 104.971C148.819 106.448 149.268 108.844 149.015 111.054C148.756 113.321 147.723 115.731 145.628 117.101C140.749 120.953 134.767 120.171 129.834 117.35C127.754 116.161 125.812 114.586 124.155 112.782C128.341 124.592 139.61 133.052 152.855 133.052C166.101 133.052 177.37 124.592 181.556 112.781C179.898 114.586 177.956 116.161 175.876 117.35C170.943 120.171 164.961 120.953 160.082 117.101C157.987 115.731 156.953 113.321 156.695 111.054C156.442 108.844 156.891 106.448 158.166 104.971C159.491 102.765 162.016 102.143 164.297 102.931C166.241 103.604 168.012 105.27 169.002 107.807C169.642 107.068 169.955 106.103 169.984 105.036C170.026 103.46 169.432 101.776 168.456 100.601L170.093 99.24C171.4 100.811 172.168 103 172.113 105.092C172.056 107.213 171.137 109.344 168.948 110.529L167.722 111.193L167.404 109.835C166.746 107.025 165.122 105.47 163.601 104.944C162.081 104.419 160.67 104.88 159.955 106.128L159.898 106.229L159.82 106.315C159.052 107.16 158.591 108.895 158.81 110.813C159.026 112.701 159.866 114.432 161.279 115.338L161.324 115.368L161.367 115.401C165.327 118.554 170.316 118.077 174.819 115.502C178.196 113.571 182.284 110.531 184.083 107.25C184.314 105.737 184.434 104.188 184.434 102.61C184.434 94.8207 181.264 87.2485 176.19 81.3644C176.47 75.7738 175.571 68.7235 172.433 64.1563C171.808 66.2804 168.334 70.2769 165.039 72.8031C161.247 71.0134 157.117 69.9981 152.855 69.9981C148.604 69.9981 144.457 71.0084 140.635 72.7898ZM166.295 80.0058L156.923 83.1362C156.923 83.1362 160.544 87.9465 163.952 86.4319C166.3 85.3883 166.296 81.8021 166.295 80.1329V80.1327V80.0058ZM148.787 83.1362L139.415 80.0058V80.1337V80.1339C139.413 81.8028 139.41 85.3883 141.758 86.4319C145.165 87.9465 148.787 83.1362 148.787 83.1362ZM146.884 97.6138C148.133 96.8544 149.523 96.2791 151.027 95.9332C154.522 95.1288 158.011 95.7076 160.917 97.3095C158.955 90.7174 154.852 86.2094 151.324 87.0214C148.302 87.717 146.608 92.1058 146.884 97.6138Z" fill="url(#paint12_linear_15_4632)"/>
<defs>
<filter id="filter0_f_15_4632" x="85.9438" y="114.161" width="130.045" height="40.5076" filterUnits="userSpaceOnUse" color-interpolation-filters="sRGB">
<feFlood flood-opacity="0" result="BackgroundImageFix"/>
<feBlend mode="normal" in="SourceGraphic" in2="BackgroundImageFix" result="shape"/>
<feGaussianBlur stdDeviation="0.69831" result="effect1_foregroundBlur_15_4632"/>
</filter>
<filter id="filter1_f_15_4632" x="149.569" y="133.018" width="68.1651" height="23.3963" filterUnits="userSpaceOnUse" color-interpolation-filters="sRGB">
<feFlood flood-opacity="0" result="BackgroundImageFix"/>
<feBlend mode="normal" in="SourceGraphic" in2="BackgroundImageFix" result="shape"/>
<feGaussianBlur stdDeviation="0.69831" result="effect1_foregroundBlur_15_4632"/>
</filter>
<filter id="filter2_f_15_4632" x="0.966778" y="0.987896" width="303.066" height="236.727" filterUnits="userSpaceOnUse" color-interpolation-filters="sRGB">
<feFlood flood-opacity="0" result="BackgroundImageFix"/>
<feBlend mode="normal" in="SourceGraphic" in2="BackgroundImageFix" result="shape"/>
<feGaussianBlur stdDeviation="20.9493" result="effect1_foregroundBlur_15_4632"/>
</filter>
<filter id="filter3_df_15_4632" x="85.3398" y="121.753" width="131.253" height="55.9133" filterUnits="userSpaceOnUse" color-interpolation-filters="sRGB">
<feFlood flood-opacity="0" result="BackgroundImageFix"/>
<feColorMatrix in="SourceAlpha" type="matrix" values="0 0 0 0 0 0 0 0 0 0 0 0 0 0 0 0 0 0 127 0" result="hardAlpha"/>
<feOffset/>
<feGaussianBlur stdDeviation="2.79324"/>
<feComposite in2="hardAlpha" operator="out"/>
<feColorMatrix type="matrix" values="0 0 0 0 0.3625 0 0 0 0 0.847 0 0 0 0 1 0 0 0 0.25 0"/>
<feBlend mode="normal" in2="BackgroundImageFix" result="effect1_dropShadow_15_4632"/>
<feBlend mode="normal" in="SourceGraphic" in2="effect1_dropShadow_15_4632" result="shape"/>
<feGaussianBlur stdDeviation="1.39662" result="effect2_foregroundBlur_15_4632"/>
</filter>
<filter id="filter4_f_15_4632" x="101.761" y="127.419" width="98.41" height="38.817" filterUnits="userSpaceOnUse" color-interpolation-filters="sRGB">
<feFlood flood-opacity="0" result="BackgroundImageFix"/>
<feBlend mode="normal" in="SourceGraphic" in2="BackgroundImageFix" result="shape"/>
<feGaussianBlur stdDeviation="2.79324" result="effect1_foregroundBlur_15_4632"/>
</filter>
<filter id="filter5_d_15_4632" x="94.7778" y="120.436" width="112.376" height="52.7832" filterUnits="userSpaceOnUse" color-interpolation-filters="sRGB">
<feFlood flood-opacity="0" result="BackgroundImageFix"/>
<feColorMatrix in="SourceAlpha" type="matrix" values="0 0 0 0 0 0 0 0 0 0 0 0 0 0 0 0 0 0 127 0" result="hardAlpha"/>
<feOffset/>
<feGaussianBlur stdDeviation="6.28479"/>
<feComposite in2="hardAlpha" operator="out"/>
<feColorMatrix type="matrix" values="0 0 0 0 0.141667 0 0 0 0 0.691 0 0 0 0 1 0 0 0 1 0"/>
<feBlend mode="normal" in2="BackgroundImageFix" result="effect1_dropShadow_15_4632"/>
<feBlend mode="normal" in="SourceGraphic" in2="effect1_dropShadow_15_4632" result="shape"/>
</filter>
<filter id="filter6_f_15_4632" x="126.069" y="136.086" width="49.7949" height="17.6873" filterUnits="userSpaceOnUse" color-interpolation-filters="sRGB">
<feFlood flood-opacity="0" result="BackgroundImageFix"/>
<feBlend mode="normal" in="SourceGraphic" in2="BackgroundImageFix" result="shape"/>
<feGaussianBlur stdDeviation="0.69831" result="effect1_foregroundBlur_15_4632"/>
</filter>
<filter id="filter7_f_15_4632" x="127.82" y="135.258" width="46.2926" height="19.3431" filterUnits="userSpaceOnUse" color-interpolation-filters="sRGB">
<feFlood flood-opacity="0" result="BackgroundImageFix"/>
<feBlend mode="normal" in="SourceGraphic" in2="BackgroundImageFix" result="shape"/>
<feGaussianBlur stdDeviation="2.09493" result="effect1_foregroundBlur_15_4632"/>
</filter>
<filter id="filter8_f_15_4632" x="83.2136" y="62.6405" width="135.168" height="121.828" filterUnits="userSpaceOnUse" color-interpolation-filters="sRGB">
<feFlood flood-opacity="0" result="BackgroundImageFix"/>
<feBlend mode="normal" in="SourceGraphic" in2="BackgroundImageFix" result="shape"/>
<feGaussianBlur stdDeviation="4.18986" result="effect1_foregroundBlur_15_4632"/>
</filter>
<filter id="filter9_f_15_4632" x="176.024" y="143.719" width="35.3823" height="23.0645" filterUnits="userSpaceOnUse" color-interpolation-filters="sRGB">
<feFlood flood-opacity="0" result="BackgroundImageFix"/>
<feBlend mode="normal" in="SourceGraphic" in2="BackgroundImageFix" result="shape"/>
<feGaussianBlur stdDeviation="1.39662" result="effect1_foregroundBlur_15_4632"/>
</filter>
<filter id="filter10_f_15_4632" x="141.203" y="137.483" width="19.5279" height="14.6156" filterUnits="userSpaceOnUse" color-interpolation-filters="sRGB">
<feFlood flood-opacity="0" result="BackgroundImageFix"/>
<feBlend mode="normal" in="SourceGraphic" in2="BackgroundImageFix" result="shape"/>
<feGaussianBlur stdDeviation="2.79324" result="effect1_foregroundBlur_15_4632"/>
</filter>
<filter id="filter11_f_15_4632" x="104.077" y="150.466" width="46.8121" height="15.636" filterUnits="userSpaceOnUse" color-interpolation-filters="sRGB">
<feFlood flood-opacity="0" result="BackgroundImageFix"/>
<feBlend mode="normal" in="SourceGraphic" in2="BackgroundImageFix" result="shape"/>
<feGaussianBlur stdDeviation="1.39662" result="effect1_foregroundBlur_15_4632"/>
</filter>
<linearGradient id="paint0_linear_15_4632" x1="150.966" y1="115.557" x2="150.966" y2="153.272" gradientUnits="userSpaceOnUse">
<stop stop-color="#c9fa00" stop-opacity="0.5"/>
<stop offset="1" stop-color="#c9fa00" stop-opacity="0"/>
</linearGradient>
<linearGradient id="paint1_linear_15_4632" x1="150.966" y1="158.551" x2="150.966" y2="109.683" gradientUnits="userSpaceOnUse">
<stop stop-color="#c9fa00"/>
<stop offset="1" stop-color="#c9fa00" stop-opacity="0"/>
</linearGradient>
<linearGradient id="paint2_linear_15_4632" x1="153.556" y1="154.508" x2="212.369" y2="136.627" gradientUnits="userSpaceOnUse">
<stop stop-color="#E8FEFF" stop-opacity="0.772549"/>
<stop offset="0.599389" stop-color="#c9fa00"/>
<stop offset="1" stop-color="#E8FEFF" stop-opacity="0"/>
</linearGradient>
<linearGradient id="paint3_linear_15_4632" x1="150.967" y1="127.87" x2="150.967" y2="171.55" gradientUnits="userSpaceOnUse">
<stop stop-color="#c9fa00" stop-opacity="0.5"/>
<stop offset="1" stop-color="#c9fa00" stop-opacity="0"/>
</linearGradient>
<linearGradient id="paint4_linear_15_4632" x1="150.966" y1="127.34" x2="150.966" y2="172.08" gradientUnits="userSpaceOnUse">
<stop stop-color="#c9fa00" stop-opacity="0.5"/>
<stop offset="1" stop-color="#c9fa00" stop-opacity="0.9"/>
</linearGradient>
<linearGradient id="paint5_linear_15_4632" x1="151.247" y1="195.816" x2="151.247" y2="42.8865" gradientUnits="userSpaceOnUse">
<stop offset="0.250952" stop-color="#c9fa00" stop-opacity="0"/>
<stop offset="0.453702" stop-color="#c9fa00"/>
<stop offset="1" stop-color="#4F6200" stop-opacity="0"/>
</linearGradient>
<linearGradient id="paint6_linear_15_4632" x1="150.966" y1="127.34" x2="150.966" y2="172.08" gradientUnits="userSpaceOnUse">
<stop stop-color="#c9fa00" stop-opacity="0.5"/>
<stop offset="1" stop-color="#c9fa00" stop-opacity="0.9"/>
</linearGradient>
<linearGradient id="paint7_linear_15_4632" x1="150.967" y1="133.006" x2="150.967" y2="160.65" gradientUnits="userSpaceOnUse">
<stop stop-color="#c9fa00"/>
<stop offset="1" stop-color="#c9fa00" stop-opacity="0.6"/>
</linearGradient>
<linearGradient id="paint8_linear_15_4632" x1="150.967" y1="133.006" x2="150.967" y2="160.65" gradientUnits="userSpaceOnUse">
<stop stop-color="#c9fa00"/>
<stop offset="1" stop-color="#c9fa00" stop-opacity="0.6"/>
</linearGradient>
<linearGradient id="paint9_linear_15_4632" x1="76.7048" y1="154.205" x2="231.995" y2="154.205" gradientUnits="userSpaceOnUse">
<stop stop-color="#F1FFB7"/>
<stop offset="0.472727" stop-color="#c9fa00" stop-opacity="0"/>
<stop offset="1" stop-color="#F0FFB2"/>
</linearGradient>
<linearGradient id="paint10_linear_15_4632" x1="150.967" y1="137.483" x2="150.967" y2="152.377" gradientUnits="userSpaceOnUse">
<stop stop-color="#6A8400"/>
<stop offset="1" stop-color="#c9fa00" stop-opacity="0.6"/>
</linearGradient>
<linearGradient id="paint11_linear_15_4632" x1="150.948" y1="176.089" x2="150.948" y2="71.0202" gradientUnits="userSpaceOnUse">
<stop offset="0.250952" stop-color="#c9fa00" stop-opacity="0"/>
<stop offset="0.453702" stop-color="#c9fa00" stop-opacity="0.4"/>
<stop offset="1" stop-color="#FBFFE9" stop-opacity="0"/>
</linearGradient>
<linearGradient id="paint12_linear_15_4632" x1="152.652" y1="98.604" x2="152.652" y2="185.994" gradientUnits="userSpaceOnUse">
<stop stop-color="white"/>
<stop offset="1" stop-color="white" stop-opacity="0"/>
</linearGradient>
</defs>
</svg>
