<svg width="305" height="238" viewBox="0 0 305 238" fill="none" xmlns="http://www.w3.org/2000/svg">
<g filter="url(#filter0_f_15_4565)">
<ellipse cx="150.966" cy="134.414" rx="63.6261" ry="18.8572" fill="url(#paint0_linear_15_4565)" fill-opacity="0.4"/>
<path d="M213.894 134.414C213.894 136.676 212.344 138.973 209.192 141.183C206.059 143.378 201.48 145.383 195.758 147.079C184.325 150.467 168.489 152.573 150.966 152.573C133.444 152.573 117.608 150.467 106.174 147.079C100.453 145.383 95.8742 143.378 92.7412 141.183C89.5886 138.973 88.0387 136.676 88.0387 134.414C88.0387 132.153 89.5886 129.855 92.7412 127.646C95.8742 125.451 100.453 123.445 106.174 121.75C117.608 118.361 133.444 116.255 150.966 116.255C168.489 116.255 184.325 118.361 195.758 121.75C201.48 123.445 206.059 125.451 209.192 127.646C212.344 129.855 213.894 132.153 213.894 134.414Z" stroke="url(#paint1_linear_15_4565)" stroke-width="1.39662"/>
</g>
<g filter="url(#filter1_f_15_4565)">
<path d="M214.592 134.414C214.592 144.829 186.106 153.272 150.966 153.272" stroke="url(#paint2_linear_15_4565)" stroke-width="3.49155"/>
</g>
<ellipse cx="150.967" cy="149.71" rx="58.6172" ry="21.84" fill="url(#paint3_linear_15_4565)"/>
<path fill-rule="evenodd" clip-rule="evenodd" d="M150.967 172.08C184.126 172.08 211.007 162.065 211.007 149.71C211.007 137.355 184.126 127.34 150.967 127.34C117.807 127.34 90.9263 137.355 90.9263 149.71C90.9263 162.065 117.807 172.08 150.967 172.08ZM150.967 171.55C183.34 171.55 209.584 161.772 209.584 149.71C209.584 137.648 183.34 127.87 150.967 127.87C118.594 127.87 92.3498 137.648 92.3498 149.71C92.3498 161.772 118.594 171.55 150.967 171.55Z" fill="url(#paint4_linear_15_4565)"/>
<g filter="url(#filter2_f_15_4565)">
<path d="M151.248 195.816L42.8654 42.8865L262.135 42.8865L151.248 195.816Z" fill="url(#paint5_linear_15_4565)" fill-opacity="0.6"/>
</g>
<g filter="url(#filter3_df_15_4565)">
<path fill-rule="evenodd" clip-rule="evenodd" d="M150.967 172.08C184.126 172.08 211.007 162.065 211.007 149.71C211.007 137.355 184.126 127.34 150.967 127.34C117.807 127.34 90.9263 137.355 90.9263 149.71C90.9263 162.065 117.807 172.08 150.967 172.08ZM150.967 171.647C183.34 171.647 209.584 161.826 209.584 149.71C209.584 137.594 183.34 127.773 150.967 127.773C118.594 127.773 92.3498 137.594 92.3498 149.71C92.3498 161.826 118.594 171.647 150.967 171.647Z" fill="url(#paint6_linear_15_4565)" shape-rendering="crispEdges"/>
</g>
<g filter="url(#filter4_f_15_4565)">
<path fill-rule="evenodd" clip-rule="evenodd" d="M150.966 160.65C175.056 160.65 194.585 154.461 194.585 146.828C194.585 139.194 175.056 133.006 150.966 133.006C126.876 133.006 107.347 139.194 107.347 146.828C107.347 154.461 126.876 160.65 150.966 160.65ZM150.966 159.62C173.261 159.62 191.334 153.893 191.334 146.828C191.334 139.763 173.261 134.036 150.966 134.036C128.671 134.036 110.597 139.763 110.597 146.828C110.597 153.893 128.671 159.62 150.966 159.62Z" fill="url(#paint7_linear_15_4565)"/>
</g>
<g filter="url(#filter5_d_15_4565)">
<path fill-rule="evenodd" clip-rule="evenodd" d="M150.966 160.65C175.056 160.65 194.585 154.461 194.585 146.828C194.585 139.194 175.056 133.006 150.966 133.006C126.876 133.006 107.347 139.194 107.347 146.828C107.347 154.461 126.876 160.65 150.966 160.65ZM150.966 159.62C173.261 159.62 191.334 153.893 191.334 146.828C191.334 139.763 173.261 134.036 150.966 134.036C128.671 134.036 110.597 139.763 110.597 146.828C110.597 153.893 128.671 159.62 150.966 159.62Z" fill="url(#paint8_linear_15_4565)" shape-rendering="crispEdges"/>
</g>
<path fill-rule="evenodd" clip-rule="evenodd" d="M211.182 149.846C211.183 149.801 211.183 149.755 211.183 149.71C211.206 149.654 211.228 149.596 211.251 149.538L214.126 136.701C210.318 146.037 183.491 153.272 150.963 153.272C118.005 153.272 90.8993 145.845 87.6607 136.33L90.8191 150.09L90.8201 150.092C93.8732 163.381 117.797 172.08 150.956 172.08C180.382 172.08 205.011 164.193 210.184 153.783L210.692 152.035L211.182 149.846Z" fill="url(#paint9_linear_15_4565)" fill-opacity="0.5"/>
<g filter="url(#filter6_f_15_4565)">
<path fill-rule="evenodd" clip-rule="evenodd" d="M174.468 144.93C174.468 149.043 163.946 152.377 150.967 152.377C137.988 152.377 127.466 149.043 127.466 144.93C127.466 140.817 137.988 137.483 150.967 137.483C162.262 137.483 171.695 140.008 173.954 143.373H172.091C169.761 140.528 161.187 138.418 150.966 138.418C138.954 138.418 129.217 141.333 129.217 144.93C129.217 148.526 138.954 151.442 150.966 151.442C162.978 151.442 172.716 148.526 172.716 144.93L174.468 144.93Z" fill="url(#paint10_linear_15_4565)"/>
</g>
<g filter="url(#filter7_f_15_4565)">
<path d="M169.923 144.93C169.923 147.957 161.436 150.411 150.967 150.411C140.497 150.411 132.01 147.957 132.01 144.93C132.01 141.902 140.497 139.448 150.967 139.448C161.436 139.448 169.923 141.902 169.923 144.93Z" fill="#c9fa00"/>
</g>
<g opacity="0.4" filter="url(#filter8_f_15_4565)">
<path d="M150.949 176.089L91.5934 71.0201L210.002 71.0201L150.949 176.089Z" fill="url(#paint11_linear_15_4565)"/>
</g>
<g filter="url(#filter9_f_15_4565)">
<path fill-rule="evenodd" clip-rule="evenodd" d="M208.321 152.707L208.613 146.512C207.405 147.309 206.064 148.079 204.602 148.819C204.472 150.768 204.318 153.088 204.178 155.444C205.721 154.565 207.107 153.651 208.321 152.707ZM199.379 157.841L199.701 151.007C197.745 151.78 195.642 152.51 193.406 153.19C193.255 155.528 193.103 158.015 192.994 160.298C195.278 159.53 197.412 158.709 199.379 157.841ZM187.471 161.971L187.81 154.721C185.099 155.386 182.237 155.986 179.247 156.512C179.084 159.021 178.923 161.652 178.817 163.99C181.849 163.392 184.741 162.716 187.471 161.971Z" fill="#c9fa00" fill-opacity="0.1"/>
</g>
<g filter="url(#filter10_f_15_4565)">
<path d="M155.145 144.791C155.145 145.742 153.274 146.512 150.967 146.512C148.66 146.512 146.79 145.742 146.79 144.791C146.79 143.84 148.66 143.07 150.967 143.07C153.274 143.07 155.145 143.84 155.145 144.791Z" fill="#c9fa00"/>
</g>
<g filter="url(#filter11_f_15_4565)">
<path d="M148.096 159.45C130.588 159.173 114.114 155.359 107.536 153.259L106.871 158.784C110.403 160.694 114.452 162.123 120.332 163.309L120.55 161.713C122.041 162.092 126.499 162.623 128.541 162.841L128.712 160.444C135.577 161.689 143.625 161.878 147.839 161.977L147.896 161.978C147.893 161.789 148.035 160.827 148.096 159.45Z" fill="#c9fa00" fill-opacity="0.1"/>
</g>
<path fill-rule="evenodd" clip-rule="evenodd" d="M145.351 80.1066C143.408 75.932 142.702 70.0286 143.731 63.7253C144.005 62.0474 144.386 60.4354 144.858 58.9102C137.447 54.8302 125.916 58.2055 117.626 67.3519C112.614 72.8811 109.817 79.3823 109.446 85.2007C114.36 86.9563 119.152 91.5022 122.07 97.8149C122.232 98.1665 122.387 98.5189 122.534 98.8719C124.114 95.3231 126.526 91.8183 129.702 88.7046C134.465 84.0353 140.073 81.1037 145.351 80.1066ZM180.675 81.9612C188.597 81.9612 195.051 90.9638 195.323 102.216L195.313 102.221L195.382 103.507C195.382 103.507 189.81 106.22 183.578 109.163C178.347 111.634 172.65 114.266 169.397 115.591C162.268 118.492 136.715 128.269 136.715 128.269C136.715 128.269 135.672 128.463 135.282 127.159C134.929 125.984 135.807 125.449 135.807 125.449C140.282 124.015 147.912 121.008 154.588 118.377L154.588 118.377L154.589 118.377L154.589 118.377C157.921 117.064 161.015 115.844 163.362 114.96C164.98 114.274 166.464 113.656 167.838 113.093C166.679 110.088 166.019 106.632 166.019 102.955C166.019 91.3605 172.581 81.9612 180.675 81.9612ZM149.095 87.0017C148.481 86.1525 147.912 85.2373 147.392 84.2641C142.21 84.8905 136.568 87.5084 131.741 91.947C128.781 94.6685 126.478 97.7529 124.895 100.91L135.143 122.914L164.433 111.807C163.878 109.237 163.579 106.506 163.579 103.675C163.579 99.9042 164.109 96.3108 165.069 93.0394C163.714 93.5424 162.294 93.8099 160.831 93.8099C159.369 93.8099 157.95 93.543 156.597 93.0411C154.411 94.879 152.144 97.1881 150.397 100.051C149.995 100.709 149.136 100.917 148.478 100.515C147.819 100.114 147.611 99.2542 148.013 98.5957C149.706 95.8203 151.825 93.5331 153.902 91.6803C152.831 90.9873 151.818 90.1387 150.879 89.1542C148.306 91.1429 145.431 93.7964 143.318 97.26C142.916 97.9184 142.056 98.1265 141.398 97.7248C140.739 97.323 140.531 96.4636 140.933 95.8051C143.256 91.9985 146.379 89.1103 149.095 87.0017Z" fill="url(#paint12_linear_15_4565)"/>
<defs>
<filter id="filter0_f_15_4565" x="85.9438" y="114.161" width="130.045" height="40.5076" filterUnits="userSpaceOnUse" color-interpolation-filters="sRGB">
<feFlood flood-opacity="0" result="BackgroundImageFix"/>
<feBlend mode="normal" in="SourceGraphic" in2="BackgroundImageFix" result="shape"/>
<feGaussianBlur stdDeviation="0.69831" result="effect1_foregroundBlur_15_4565"/>
</filter>
<filter id="filter1_f_15_4565" x="149.569" y="133.018" width="68.1651" height="23.3963" filterUnits="userSpaceOnUse" color-interpolation-filters="sRGB">
<feFlood flood-opacity="0" result="BackgroundImageFix"/>
<feBlend mode="normal" in="SourceGraphic" in2="BackgroundImageFix" result="shape"/>
<feGaussianBlur stdDeviation="0.69831" result="effect1_foregroundBlur_15_4565"/>
</filter>
<filter id="filter2_f_15_4565" x="0.966839" y="0.987896" width="303.066" height="236.727" filterUnits="userSpaceOnUse" color-interpolation-filters="sRGB">
<feFlood flood-opacity="0" result="BackgroundImageFix"/>
<feBlend mode="normal" in="SourceGraphic" in2="BackgroundImageFix" result="shape"/>
<feGaussianBlur stdDeviation="20.9493" result="effect1_foregroundBlur_15_4565"/>
</filter>
<filter id="filter3_df_15_4565" x="85.3398" y="121.753" width="131.253" height="55.9133" filterUnits="userSpaceOnUse" color-interpolation-filters="sRGB">
<feFlood flood-opacity="0" result="BackgroundImageFix"/>
<feColorMatrix in="SourceAlpha" type="matrix" values="0 0 0 0 0 0 0 0 0 0 0 0 0 0 0 0 0 0 127 0" result="hardAlpha"/>
<feOffset/>
<feGaussianBlur stdDeviation="2.79324"/>
<feComposite in2="hardAlpha" operator="out"/>
<feColorMatrix type="matrix" values="0 0 0 0 0.3625 0 0 0 0 0.847 0 0 0 0 1 0 0 0 0.25 0"/>
<feBlend mode="normal" in2="BackgroundImageFix" result="effect1_dropShadow_15_4565"/>
<feBlend mode="normal" in="SourceGraphic" in2="effect1_dropShadow_15_4565" result="shape"/>
<feGaussianBlur stdDeviation="1.39662" result="effect2_foregroundBlur_15_4565"/>
</filter>
<filter id="filter4_f_15_4565" x="101.761" y="127.419" width="98.41" height="38.817" filterUnits="userSpaceOnUse" color-interpolation-filters="sRGB">
<feFlood flood-opacity="0" result="BackgroundImageFix"/>
<feBlend mode="normal" in="SourceGraphic" in2="BackgroundImageFix" result="shape"/>
<feGaussianBlur stdDeviation="2.79324" result="effect1_foregroundBlur_15_4565"/>
</filter>
<filter id="filter5_d_15_4565" x="94.7779" y="120.436" width="112.376" height="52.7832" filterUnits="userSpaceOnUse" color-interpolation-filters="sRGB">
<feFlood flood-opacity="0" result="BackgroundImageFix"/>
<feColorMatrix in="SourceAlpha" type="matrix" values="0 0 0 0 0 0 0 0 0 0 0 0 0 0 0 0 0 0 127 0" result="hardAlpha"/>
<feOffset/>
<feGaussianBlur stdDeviation="6.28479"/>
<feComposite in2="hardAlpha" operator="out"/>
<feColorMatrix type="matrix" values="0 0 0 0 0.141667 0 0 0 0 0.691 0 0 0 0 1 0 0 0 1 0"/>
<feBlend mode="normal" in2="BackgroundImageFix" result="effect1_dropShadow_15_4565"/>
<feBlend mode="normal" in="SourceGraphic" in2="effect1_dropShadow_15_4565" result="shape"/>
</filter>
<filter id="filter6_f_15_4565" x="126.069" y="136.086" width="49.7949" height="17.6873" filterUnits="userSpaceOnUse" color-interpolation-filters="sRGB">
<feFlood flood-opacity="0" result="BackgroundImageFix"/>
<feBlend mode="normal" in="SourceGraphic" in2="BackgroundImageFix" result="shape"/>
<feGaussianBlur stdDeviation="0.69831" result="effect1_foregroundBlur_15_4565"/>
</filter>
<filter id="filter7_f_15_4565" x="127.82" y="135.258" width="46.2926" height="19.3431" filterUnits="userSpaceOnUse" color-interpolation-filters="sRGB">
<feFlood flood-opacity="0" result="BackgroundImageFix"/>
<feBlend mode="normal" in="SourceGraphic" in2="BackgroundImageFix" result="shape"/>
<feGaussianBlur stdDeviation="2.09493" result="effect1_foregroundBlur_15_4565"/>
</filter>
<filter id="filter8_f_15_4565" x="83.2137" y="62.6404" width="135.168" height="121.828" filterUnits="userSpaceOnUse" color-interpolation-filters="sRGB">
<feFlood flood-opacity="0" result="BackgroundImageFix"/>
<feBlend mode="normal" in="SourceGraphic" in2="BackgroundImageFix" result="shape"/>
<feGaussianBlur stdDeviation="4.18986" result="effect1_foregroundBlur_15_4565"/>
</filter>
<filter id="filter9_f_15_4565" x="176.024" y="143.719" width="35.3823" height="23.0645" filterUnits="userSpaceOnUse" color-interpolation-filters="sRGB">
<feFlood flood-opacity="0" result="BackgroundImageFix"/>
<feBlend mode="normal" in="SourceGraphic" in2="BackgroundImageFix" result="shape"/>
<feGaussianBlur stdDeviation="1.39662" result="effect1_foregroundBlur_15_4565"/>
</filter>
<filter id="filter10_f_15_4565" x="141.203" y="137.483" width="19.528" height="14.6156" filterUnits="userSpaceOnUse" color-interpolation-filters="sRGB">
<feFlood flood-opacity="0" result="BackgroundImageFix"/>
<feBlend mode="normal" in="SourceGraphic" in2="BackgroundImageFix" result="shape"/>
<feGaussianBlur stdDeviation="2.79324" result="effect1_foregroundBlur_15_4565"/>
</filter>
<filter id="filter11_f_15_4565" x="104.077" y="150.466" width="46.812" height="15.636" filterUnits="userSpaceOnUse" color-interpolation-filters="sRGB">
<feFlood flood-opacity="0" result="BackgroundImageFix"/>
<feBlend mode="normal" in="SourceGraphic" in2="BackgroundImageFix" result="shape"/>
<feGaussianBlur stdDeviation="1.39662" result="effect1_foregroundBlur_15_4565"/>
</filter>
<linearGradient id="paint0_linear_15_4565" x1="150.966" y1="115.557" x2="150.966" y2="153.272" gradientUnits="userSpaceOnUse">
<stop stop-color="#c9fa00" stop-opacity="0.5"/>
<stop offset="1" stop-color="#c9fa00" stop-opacity="0"/>
</linearGradient>
<linearGradient id="paint1_linear_15_4565" x1="150.966" y1="158.551" x2="150.966" y2="109.683" gradientUnits="userSpaceOnUse">
<stop stop-color="#c9fa00"/>
<stop offset="1" stop-color="#c9fa00" stop-opacity="0"/>
</linearGradient>
<linearGradient id="paint2_linear_15_4565" x1="153.556" y1="154.508" x2="212.369" y2="136.627" gradientUnits="userSpaceOnUse">
<stop stop-color="#E8FEFF" stop-opacity="0.772549"/>
<stop offset="0.599389" stop-color="#c9fa00"/>
<stop offset="1" stop-color="#E8FEFF" stop-opacity="0"/>
</linearGradient>
<linearGradient id="paint3_linear_15_4565" x1="150.967" y1="127.87" x2="150.967" y2="171.55" gradientUnits="userSpaceOnUse">
<stop stop-color="#c9fa00" stop-opacity="0.5"/>
<stop offset="1" stop-color="#c9fa00" stop-opacity="0"/>
</linearGradient>
<linearGradient id="paint4_linear_15_4565" x1="150.967" y1="127.34" x2="150.967" y2="172.08" gradientUnits="userSpaceOnUse">
<stop stop-color="#c9fa00" stop-opacity="0.5"/>
<stop offset="1" stop-color="#c9fa00" stop-opacity="0.9"/>
</linearGradient>
<linearGradient id="paint5_linear_15_4565" x1="151.247" y1="195.816" x2="151.247" y2="42.8865" gradientUnits="userSpaceOnUse">
<stop offset="0.250952" stop-color="#c9fa00" stop-opacity="0"/>
<stop offset="0.453702" stop-color="#c9fa00"/>
<stop offset="1" stop-color="#4F6200" stop-opacity="0"/>
</linearGradient>
<linearGradient id="paint6_linear_15_4565" x1="150.967" y1="127.34" x2="150.967" y2="172.08" gradientUnits="userSpaceOnUse">
<stop stop-color="#c9fa00" stop-opacity="0.5"/>
<stop offset="1" stop-color="#c9fa00" stop-opacity="0.9"/>
</linearGradient>
<linearGradient id="paint7_linear_15_4565" x1="150.967" y1="133.006" x2="150.967" y2="160.65" gradientUnits="userSpaceOnUse">
<stop stop-color="#c9fa00"/>
<stop offset="1" stop-color="#c9fa00" stop-opacity="0.6"/>
</linearGradient>
<linearGradient id="paint8_linear_15_4565" x1="150.967" y1="133.006" x2="150.967" y2="160.65" gradientUnits="userSpaceOnUse">
<stop stop-color="#c9fa00"/>
<stop offset="1" stop-color="#c9fa00" stop-opacity="0.6"/>
</linearGradient>
<linearGradient id="paint9_linear_15_4565" x1="76.7048" y1="154.205" x2="231.995" y2="154.205" gradientUnits="userSpaceOnUse">
<stop stop-color="#F1FFB7"/>
<stop offset="0.472727" stop-color="#c9fa00" stop-opacity="0"/>
<stop offset="1" stop-color="#F0FFB2"/>
</linearGradient>
<linearGradient id="paint10_linear_15_4565" x1="150.967" y1="137.483" x2="150.967" y2="152.377" gradientUnits="userSpaceOnUse">
<stop stop-color="#6A8400"/>
<stop offset="1" stop-color="#c9fa00" stop-opacity="0.6"/>
</linearGradient>
<linearGradient id="paint11_linear_15_4565" x1="150.948" y1="176.089" x2="150.948" y2="71.0201" gradientUnits="userSpaceOnUse">
<stop offset="0.250952" stop-color="#c9fa00" stop-opacity="0"/>
<stop offset="0.453702" stop-color="#c9fa00"/>
<stop offset="1" stop-color="#FBFFE9" stop-opacity="0"/>
</linearGradient>
<linearGradient id="paint12_linear_15_4565" x1="152.414" y1="92.7395" x2="152.414" y2="148.132" gradientUnits="userSpaceOnUse">
<stop stop-color="white"/>
<stop offset="1" stop-color="white" stop-opacity="0"/>
</linearGradient>
</defs>
</svg>
