<svg width="305" height="238" viewBox="0 0 305 238" fill="none" xmlns="http://www.w3.org/2000/svg">
<g filter="url(#filter0_f_15_4515)">
<ellipse cx="150.967" cy="134.301" rx="63.6261" ry="18.8572" fill="url(#paint0_linear_15_4515)" fill-opacity="0.4"/>
<path d="M213.894 134.301C213.894 136.562 212.344 138.86 209.192 141.069C206.059 143.264 201.48 145.27 195.759 146.965C184.325 150.354 168.489 152.46 150.967 152.46C133.444 152.46 117.608 150.354 106.175 146.965C100.453 145.27 95.8743 143.264 92.7413 141.069C89.5886 138.86 88.0388 136.562 88.0388 134.301C88.0388 132.04 89.5886 129.742 92.7413 127.532C95.8743 125.337 100.453 123.332 106.175 121.636C117.608 118.248 133.444 116.142 150.967 116.142C168.489 116.142 184.325 118.248 195.759 121.636C201.48 123.332 206.059 125.337 209.192 127.532C212.344 129.742 213.894 132.04 213.894 134.301Z" stroke="url(#paint1_linear_15_4515)" stroke-width="1.39662"/>
</g>
<g filter="url(#filter1_f_15_4515)">
<path d="M214.592 134.301C214.592 144.715 186.106 153.158 150.966 153.158" stroke="url(#paint2_linear_15_4515)" stroke-width="3.49155"/>
</g>
<ellipse cx="150.967" cy="149.596" rx="58.6172" ry="21.84" fill="url(#paint3_linear_15_4515)"/>
<path fill-rule="evenodd" clip-rule="evenodd" d="M150.967 171.966C184.126 171.966 211.007 161.951 211.007 149.596C211.007 137.242 184.126 127.226 150.967 127.226C117.807 127.226 90.9264 137.242 90.9264 149.596C90.9264 161.951 117.807 171.966 150.967 171.966ZM150.967 171.436C183.34 171.436 209.584 161.658 209.584 149.596C209.584 137.534 183.34 127.756 150.967 127.756C118.594 127.756 92.3498 137.534 92.3498 149.596C92.3498 161.658 118.594 171.436 150.967 171.436Z" fill="url(#paint4_linear_15_4515)"/>
<g filter="url(#filter2_f_15_4515)">
<path d="M151.248 195.702L42.8654 42.7726L262.135 42.7726L151.248 195.702Z" fill="url(#paint5_linear_15_4515)" fill-opacity="0.6"/>
</g>
<g filter="url(#filter3_df_15_4515)">
<path fill-rule="evenodd" clip-rule="evenodd" d="M150.967 171.966C184.126 171.966 211.007 161.951 211.007 149.596C211.007 137.242 184.126 127.226 150.967 127.226C117.807 127.226 90.9264 137.242 90.9264 149.596C90.9264 161.951 117.807 171.966 150.967 171.966ZM150.967 171.534C183.34 171.534 209.584 161.712 209.584 149.596C209.584 137.481 183.34 127.659 150.967 127.659C118.594 127.659 92.3498 137.481 92.3498 149.596C92.3498 161.712 118.594 171.534 150.967 171.534Z" fill="url(#paint6_linear_15_4515)" shape-rendering="crispEdges"/>
</g>
<g filter="url(#filter4_f_15_4515)">
<path fill-rule="evenodd" clip-rule="evenodd" d="M150.966 160.536C175.056 160.536 194.585 154.348 194.585 146.714C194.585 139.08 175.056 132.892 150.966 132.892C126.876 132.892 107.347 139.08 107.347 146.714C107.347 154.348 126.876 160.536 150.966 160.536ZM150.966 159.506C173.261 159.506 191.334 153.779 191.334 146.714C191.334 139.649 173.261 133.922 150.966 133.922C128.671 133.922 110.597 139.649 110.597 146.714C110.597 153.779 128.671 159.506 150.966 159.506Z" fill="url(#paint7_linear_15_4515)"/>
</g>
<g filter="url(#filter5_d_15_4515)">
<path fill-rule="evenodd" clip-rule="evenodd" d="M150.966 160.536C175.056 160.536 194.585 154.348 194.585 146.714C194.585 139.08 175.056 132.892 150.966 132.892C126.876 132.892 107.347 139.08 107.347 146.714C107.347 154.348 126.876 160.536 150.966 160.536ZM150.966 159.506C173.261 159.506 191.334 153.779 191.334 146.714C191.334 139.649 173.261 133.922 150.966 133.922C128.671 133.922 110.597 139.649 110.597 146.714C110.597 153.779 128.671 159.506 150.966 159.506Z" fill="url(#paint8_linear_15_4515)" shape-rendering="crispEdges"/>
</g>
<path fill-rule="evenodd" clip-rule="evenodd" d="M211.182 149.732C211.183 149.687 211.184 149.641 211.184 149.596C211.206 149.54 211.228 149.483 211.251 149.424L214.126 136.587C210.319 145.923 183.491 153.158 150.963 153.158C118.005 153.158 90.8999 145.731 87.6608 136.216L90.8192 149.976L90.8201 149.978C93.8732 163.267 117.797 171.966 150.956 171.966C180.381 171.966 205.01 164.08 210.184 153.67L210.692 151.922L211.182 149.732Z" fill="url(#paint9_linear_15_4515)" fill-opacity="0.5"/>
<g filter="url(#filter6_f_15_4515)">
<path fill-rule="evenodd" clip-rule="evenodd" d="M174.468 144.816C174.468 148.929 163.946 152.263 150.967 152.263C137.988 152.263 127.466 148.929 127.466 144.816C127.466 140.703 137.988 137.369 150.967 137.369C162.261 137.369 171.695 139.894 173.954 143.26H172.091C169.761 140.415 161.187 138.304 150.966 138.304C138.954 138.304 129.216 141.219 129.216 144.816C129.216 148.413 138.954 151.328 150.966 151.328C162.978 151.328 172.716 148.413 172.716 144.816L174.468 144.816C174.468 144.816 174.468 144.816 174.468 144.816Z" fill="url(#paint10_linear_15_4515)"/>
</g>
<g filter="url(#filter7_f_15_4515)">
<path d="M169.923 144.816C169.923 147.843 161.436 150.298 150.967 150.298C140.497 150.298 132.01 147.843 132.01 144.816C132.01 141.788 140.497 139.334 150.967 139.334C161.436 139.334 169.923 141.788 169.923 144.816Z" fill="#c9fa00"/>
</g>
<g opacity="0.4" filter="url(#filter8_f_15_4515)">
<path d="M150.949 175.975L91.5935 70.9064L210.002 70.9065L150.949 175.975Z" fill="url(#paint11_linear_15_4515)"/>
</g>
<g filter="url(#filter9_f_15_4515)">
<path fill-rule="evenodd" clip-rule="evenodd" d="M208.321 152.593L208.613 146.399C207.405 147.195 206.065 147.965 204.602 148.705C204.472 150.654 204.318 152.974 204.178 155.33C205.721 154.452 207.107 153.538 208.321 152.593ZM199.379 157.728L199.701 150.893C197.745 151.667 195.642 152.396 193.406 153.076C193.255 155.414 193.103 157.901 192.994 160.184C195.278 159.416 197.412 158.595 199.379 157.728ZM187.471 161.858L187.81 154.607C185.099 155.272 182.237 155.872 179.247 156.398C179.084 158.908 178.923 161.538 178.817 163.877C181.849 163.278 184.741 162.602 187.471 161.858Z" fill="#c9fa00" fill-opacity="0.1"/>
</g>
<g filter="url(#filter10_f_15_4515)">
<path d="M155.145 144.677C155.145 145.628 153.275 146.399 150.967 146.399C148.66 146.399 146.79 145.628 146.79 144.677C146.79 143.727 148.66 142.956 150.967 142.956C153.275 142.956 155.145 143.727 155.145 144.677Z" fill="#c9fa00"/>
</g>
<g filter="url(#filter11_f_15_4515)">
<path d="M148.096 159.336C130.588 159.059 114.114 155.246 107.536 153.145L106.871 158.67C110.403 160.581 114.452 162.009 120.332 163.195L120.55 161.6C122.041 161.978 126.499 162.509 128.541 162.728L128.712 160.33C135.576 161.576 143.625 161.764 147.839 161.863L147.896 161.864C147.893 161.675 148.035 160.713 148.096 159.336Z" fill="#c9fa00" fill-opacity="0.1"/>
</g>
<path fill-rule="evenodd" clip-rule="evenodd" d="M140.639 33.0666L140.435 37.573L145.378 40.6189L147.681 33.3849C146.246 33.1072 143.24 32.8832 140.639 33.0666ZM138.295 53.2225L123.146 43.101C123.146 43.101 124.757 41.6973 127.33 40.5353C129.903 39.3733 132.446 38.9013 132.446 38.9013L138.295 53.2225ZM127.144 56.285L156.313 70.6763L146.714 55.3776L160.213 56.946L155.625 44.7316C175.038 46.6354 190.298 66.1198 190.298 89.8751C190.298 90.749 190.277 91.6171 190.236 92.4786C177.913 98.1762 169.856 104.973 171.328 109.01C171.426 109.277 171.562 109.526 171.737 109.758C173.367 111.922 174.81 115.333 172.367 116.507C166.226 119.458 159.522 121.082 152.501 121.082C145.48 121.082 138.774 119.458 132.633 116.506C130.191 115.332 131.633 111.922 133.263 109.757C133.438 109.525 133.574 109.276 133.672 109.01C135.144 104.973 127.088 98.1767 114.766 92.4795C114.743 92.0065 114.727 91.5316 114.716 91.0546C114.708 90.6628 114.704 90.2695 114.704 89.8751C114.704 76.5525 119.504 64.5733 127.144 56.285ZM147.487 86.7938C147.487 92.8316 142.593 97.7263 136.555 97.7263C130.517 97.7263 125.622 92.8316 125.622 86.7938C125.622 80.756 130.517 75.8613 136.555 75.8613C142.593 75.8613 147.487 80.756 147.487 86.7938ZM168.447 97.7263C174.485 97.7263 179.379 92.8316 179.379 86.7938C179.379 80.756 174.485 75.8613 168.447 75.8613C162.409 75.8613 157.514 80.756 157.514 86.7938C157.514 92.8316 162.409 97.7263 168.447 97.7263ZM152.944 97.2373L158.476 114.59C158.476 114.59 154.834 115.522 152.5 115.522C150.167 115.522 146.526 114.59 146.526 114.59L152.057 97.2373C152.195 96.8047 152.807 96.8047 152.944 97.2373Z" fill="url(#paint12_linear_15_4515)"/>
<defs>
<filter id="filter0_f_15_4515" x="85.9439" y="114.047" width="130.045" height="40.5076" filterUnits="userSpaceOnUse" color-interpolation-filters="sRGB">
<feFlood flood-opacity="0" result="BackgroundImageFix"/>
<feBlend mode="normal" in="SourceGraphic" in2="BackgroundImageFix" result="shape"/>
<feGaussianBlur stdDeviation="0.69831" result="effect1_foregroundBlur_15_4515"/>
</filter>
<filter id="filter1_f_15_4515" x="149.569" y="132.904" width="68.1651" height="23.3963" filterUnits="userSpaceOnUse" color-interpolation-filters="sRGB">
<feFlood flood-opacity="0" result="BackgroundImageFix"/>
<feBlend mode="normal" in="SourceGraphic" in2="BackgroundImageFix" result="shape"/>
<feGaussianBlur stdDeviation="0.69831" result="effect1_foregroundBlur_15_4515"/>
</filter>
<filter id="filter2_f_15_4515" x="0.966822" y="0.874004" width="303.066" height="236.727" filterUnits="userSpaceOnUse" color-interpolation-filters="sRGB">
<feFlood flood-opacity="0" result="BackgroundImageFix"/>
<feBlend mode="normal" in="SourceGraphic" in2="BackgroundImageFix" result="shape"/>
<feGaussianBlur stdDeviation="20.9493" result="effect1_foregroundBlur_15_4515"/>
</filter>
<filter id="filter3_df_15_4515" x="85.3399" y="121.64" width="131.253" height="55.9133" filterUnits="userSpaceOnUse" color-interpolation-filters="sRGB">
<feFlood flood-opacity="0" result="BackgroundImageFix"/>
<feColorMatrix in="SourceAlpha" type="matrix" values="0 0 0 0 0 0 0 0 0 0 0 0 0 0 0 0 0 0 127 0" result="hardAlpha"/>
<feOffset/>
<feGaussianBlur stdDeviation="2.79324"/>
<feComposite in2="hardAlpha" operator="out"/>
<feColorMatrix type="matrix" values="0 0 0 0 0.3625 0 0 0 0 0.847 0 0 0 0 1 0 0 0 0.25 0"/>
<feBlend mode="normal" in2="BackgroundImageFix" result="effect1_dropShadow_15_4515"/>
<feBlend mode="normal" in="SourceGraphic" in2="effect1_dropShadow_15_4515" result="shape"/>
<feGaussianBlur stdDeviation="1.39662" result="effect2_foregroundBlur_15_4515"/>
</filter>
<filter id="filter4_f_15_4515" x="101.761" y="127.305" width="98.41" height="38.817" filterUnits="userSpaceOnUse" color-interpolation-filters="sRGB">
<feFlood flood-opacity="0" result="BackgroundImageFix"/>
<feBlend mode="normal" in="SourceGraphic" in2="BackgroundImageFix" result="shape"/>
<feGaussianBlur stdDeviation="2.79324" result="effect1_foregroundBlur_15_4515"/>
</filter>
<filter id="filter5_d_15_4515" x="94.7779" y="120.322" width="112.376" height="52.7832" filterUnits="userSpaceOnUse" color-interpolation-filters="sRGB">
<feFlood flood-opacity="0" result="BackgroundImageFix"/>
<feColorMatrix in="SourceAlpha" type="matrix" values="0 0 0 0 0 0 0 0 0 0 0 0 0 0 0 0 0 0 127 0" result="hardAlpha"/>
<feOffset/>
<feGaussianBlur stdDeviation="6.28479"/>
<feComposite in2="hardAlpha" operator="out"/>
<feColorMatrix type="matrix" values="0 0 0 0 0.141667 0 0 0 0 0.691 0 0 0 0 1 0 0 0 1 0"/>
<feBlend mode="normal" in2="BackgroundImageFix" result="effect1_dropShadow_15_4515"/>
<feBlend mode="normal" in="SourceGraphic" in2="effect1_dropShadow_15_4515" result="shape"/>
</filter>
<filter id="filter6_f_15_4515" x="126.069" y="135.972" width="49.7949" height="17.6873" filterUnits="userSpaceOnUse" color-interpolation-filters="sRGB">
<feFlood flood-opacity="0" result="BackgroundImageFix"/>
<feBlend mode="normal" in="SourceGraphic" in2="BackgroundImageFix" result="shape"/>
<feGaussianBlur stdDeviation="0.69831" result="effect1_foregroundBlur_15_4515"/>
</filter>
<filter id="filter7_f_15_4515" x="127.82" y="135.144" width="46.2926" height="19.3431" filterUnits="userSpaceOnUse" color-interpolation-filters="sRGB">
<feFlood flood-opacity="0" result="BackgroundImageFix"/>
<feBlend mode="normal" in="SourceGraphic" in2="BackgroundImageFix" result="shape"/>
<feGaussianBlur stdDeviation="2.09493" result="effect1_foregroundBlur_15_4515"/>
</filter>
<filter id="filter8_f_15_4515" x="83.2137" y="62.5268" width="135.168" height="121.828" filterUnits="userSpaceOnUse" color-interpolation-filters="sRGB">
<feFlood flood-opacity="0" result="BackgroundImageFix"/>
<feBlend mode="normal" in="SourceGraphic" in2="BackgroundImageFix" result="shape"/>
<feGaussianBlur stdDeviation="4.18986" result="effect1_foregroundBlur_15_4515"/>
</filter>
<filter id="filter9_f_15_4515" x="176.024" y="143.605" width="35.3824" height="23.0645" filterUnits="userSpaceOnUse" color-interpolation-filters="sRGB">
<feFlood flood-opacity="0" result="BackgroundImageFix"/>
<feBlend mode="normal" in="SourceGraphic" in2="BackgroundImageFix" result="shape"/>
<feGaussianBlur stdDeviation="1.39662" result="effect1_foregroundBlur_15_4515"/>
</filter>
<filter id="filter10_f_15_4515" x="141.203" y="137.37" width="19.5279" height="14.6156" filterUnits="userSpaceOnUse" color-interpolation-filters="sRGB">
<feFlood flood-opacity="0" result="BackgroundImageFix"/>
<feBlend mode="normal" in="SourceGraphic" in2="BackgroundImageFix" result="shape"/>
<feGaussianBlur stdDeviation="2.79324" result="effect1_foregroundBlur_15_4515"/>
</filter>
<filter id="filter11_f_15_4515" x="104.077" y="150.352" width="46.8121" height="15.636" filterUnits="userSpaceOnUse" color-interpolation-filters="sRGB">
<feFlood flood-opacity="0" result="BackgroundImageFix"/>
<feBlend mode="normal" in="SourceGraphic" in2="BackgroundImageFix" result="shape"/>
<feGaussianBlur stdDeviation="1.39662" result="effect1_foregroundBlur_15_4515"/>
</filter>
<linearGradient id="paint0_linear_15_4515" x1="150.967" y1="115.443" x2="150.967" y2="153.158" gradientUnits="userSpaceOnUse">
<stop stop-color="#c9fa00" stop-opacity="0.5"/>
<stop offset="1" stop-color="#c9fa00" stop-opacity="0"/>
</linearGradient>
<linearGradient id="paint1_linear_15_4515" x1="150.967" y1="158.437" x2="150.967" y2="109.57" gradientUnits="userSpaceOnUse">
<stop stop-color="#c9fa00"/>
<stop offset="1" stop-color="#c9fa00" stop-opacity="0"/>
</linearGradient>
<linearGradient id="paint2_linear_15_4515" x1="153.556" y1="154.394" x2="212.369" y2="136.513" gradientUnits="userSpaceOnUse">
<stop stop-color="#E8FEFF" stop-opacity="0.772549"/>
<stop offset="0.599389" stop-color="#c9fa00"/>
<stop offset="1" stop-color="#E8FEFF" stop-opacity="0"/>
</linearGradient>
<linearGradient id="paint3_linear_15_4515" x1="150.967" y1="127.756" x2="150.967" y2="171.436" gradientUnits="userSpaceOnUse">
<stop stop-color="#c9fa00" stop-opacity="0.5"/>
<stop offset="1" stop-color="#c9fa00" stop-opacity="0"/>
</linearGradient>
<linearGradient id="paint4_linear_15_4515" x1="150.967" y1="127.226" x2="150.967" y2="171.966" gradientUnits="userSpaceOnUse">
<stop stop-color="#c9fa00" stop-opacity="0.5"/>
<stop offset="1" stop-color="#c9fa00" stop-opacity="0.9"/>
</linearGradient>
<linearGradient id="paint5_linear_15_4515" x1="151.247" y1="195.702" x2="151.247" y2="42.7726" gradientUnits="userSpaceOnUse">
<stop offset="0.250952" stop-color="#c9fa00" stop-opacity="0"/>
<stop offset="0.453702" stop-color="#c9fa00"/>
<stop offset="1" stop-color="#4F6200" stop-opacity="0"/>
</linearGradient>
<linearGradient id="paint6_linear_15_4515" x1="150.967" y1="127.226" x2="150.967" y2="171.966" gradientUnits="userSpaceOnUse">
<stop stop-color="#c9fa00" stop-opacity="0.5"/>
<stop offset="1" stop-color="#c9fa00" stop-opacity="0.9"/>
</linearGradient>
<linearGradient id="paint7_linear_15_4515" x1="150.967" y1="132.892" x2="150.967" y2="160.536" gradientUnits="userSpaceOnUse">
<stop stop-color="#c9fa00"/>
<stop offset="1" stop-color="#c9fa00" stop-opacity="0.6"/>
</linearGradient>
<linearGradient id="paint8_linear_15_4515" x1="150.967" y1="132.892" x2="150.967" y2="160.536" gradientUnits="userSpaceOnUse">
<stop stop-color="#c9fa00"/>
<stop offset="1" stop-color="#c9fa00" stop-opacity="0.6"/>
</linearGradient>
<linearGradient id="paint9_linear_15_4515" x1="76.7049" y1="154.091" x2="231.995" y2="154.091" gradientUnits="userSpaceOnUse">
<stop stop-color="#F1FFB7"/>
<stop offset="0.472727" stop-color="#c9fa00" stop-opacity="0"/>
<stop offset="1" stop-color="#F0FFB2"/>
</linearGradient>
<linearGradient id="paint10_linear_15_4515" x1="150.967" y1="137.369" x2="150.967" y2="152.263" gradientUnits="userSpaceOnUse">
<stop stop-color="#6A8400"/>
<stop offset="1" stop-color="#c9fa00" stop-opacity="0.6"/>
</linearGradient>
<linearGradient id="paint11_linear_15_4515" x1="150.948" y1="175.975" x2="150.948" y2="70.9065" gradientUnits="userSpaceOnUse">
<stop offset="0.250952" stop-color="#c9fa00" stop-opacity="0"/>
<stop offset="0.453702" stop-color="#c9fa00"/>
<stop offset="1" stop-color="#FBFFE9" stop-opacity="0"/>
</linearGradient>
<linearGradient id="paint12_linear_15_4515" x1="152.501" y1="77.0413" x2="152.501" y2="145.683" gradientUnits="userSpaceOnUse">
<stop stop-color="white"/>
<stop offset="1" stop-color="white" stop-opacity="0"/>
</linearGradient>
</defs>
</svg>
