<svg width="305" height="238" viewBox="0 0 305 238" fill="none" xmlns="http://www.w3.org/2000/svg">
<g filter="url(#filter0_f_15_4451)">
<ellipse cx="150.967" cy="134.23" rx="63.6261" ry="18.8572" fill="url(#paint0_linear_15_4451)" fill-opacity="0.4"/>
<path d="M213.894 134.23C213.894 136.492 212.344 138.79 209.192 140.999C206.059 143.194 201.48 145.199 195.759 146.895C184.325 150.284 168.489 152.389 150.967 152.389C133.444 152.389 117.608 150.284 106.175 146.895C100.453 145.199 95.8743 143.194 92.7412 140.999C89.5886 138.79 88.0387 136.492 88.0387 134.23C88.0387 131.969 89.5886 129.671 92.7412 127.462C95.8743 125.267 100.453 123.262 106.175 121.566C117.608 118.177 133.444 116.072 150.967 116.072C168.489 116.072 184.325 118.177 195.759 121.566C201.48 123.262 206.059 125.267 209.192 127.462C212.344 129.671 213.894 131.969 213.894 134.23Z" stroke="url(#paint1_linear_15_4451)" stroke-width="1.39662"/>
</g>
<g filter="url(#filter1_f_15_4451)">
<path d="M214.592 134.23C214.592 144.645 186.106 153.088 150.966 153.088" stroke="url(#paint2_linear_15_4451)" stroke-width="3.49155"/>
</g>
<ellipse cx="150.967" cy="149.526" rx="58.6172" ry="21.84" fill="url(#paint3_linear_15_4451)"/>
<path fill-rule="evenodd" clip-rule="evenodd" d="M150.967 171.896C184.126 171.896 211.007 161.881 211.007 149.526C211.007 137.171 184.126 127.156 150.967 127.156C117.807 127.156 90.9264 137.171 90.9264 149.526C90.9264 161.881 117.807 171.896 150.967 171.896ZM150.967 171.366C183.34 171.366 209.584 161.588 209.584 149.526C209.584 137.464 183.34 127.686 150.967 127.686C118.594 127.686 92.3498 137.464 92.3498 149.526C92.3498 161.588 118.594 171.366 150.967 171.366Z" fill="url(#paint4_linear_15_4451)"/>
<g filter="url(#filter2_f_15_4451)">
<path d="M151.248 195.632L42.8654 42.7024L262.135 42.7024L151.248 195.632Z" fill="url(#paint5_linear_15_4451)" fill-opacity="0.6"/>
</g>
<g filter="url(#filter3_df_15_4451)">
<path fill-rule="evenodd" clip-rule="evenodd" d="M150.967 171.896C184.126 171.896 211.007 161.881 211.007 149.526C211.007 137.171 184.126 127.156 150.967 127.156C117.807 127.156 90.9264 137.171 90.9264 149.526C90.9264 161.881 117.807 171.896 150.967 171.896ZM150.967 171.463C183.34 171.463 209.584 161.642 209.584 149.526C209.584 137.41 183.34 127.589 150.967 127.589C118.594 127.589 92.3498 137.41 92.3498 149.526C92.3498 161.642 118.594 171.463 150.967 171.463Z" fill="url(#paint6_linear_15_4451)" shape-rendering="crispEdges"/>
</g>
<g filter="url(#filter4_f_15_4451)">
<path fill-rule="evenodd" clip-rule="evenodd" d="M150.966 160.466C175.056 160.466 194.584 154.277 194.584 146.644C194.584 139.01 175.056 132.822 150.966 132.822C126.876 132.822 107.347 139.01 107.347 146.644C107.347 154.277 126.876 160.466 150.966 160.466ZM150.966 159.436C173.261 159.436 191.334 153.709 191.334 146.644C191.334 139.579 173.261 133.852 150.966 133.852C128.671 133.852 110.597 139.579 110.597 146.644C110.597 153.709 128.671 159.436 150.966 159.436Z" fill="url(#paint7_linear_15_4451)"/>
</g>
<g filter="url(#filter5_d_15_4451)">
<path fill-rule="evenodd" clip-rule="evenodd" d="M150.966 160.466C175.056 160.466 194.584 154.277 194.584 146.644C194.584 139.01 175.056 132.822 150.966 132.822C126.876 132.822 107.347 139.01 107.347 146.644C107.347 154.277 126.876 160.466 150.966 160.466ZM150.966 159.436C173.261 159.436 191.334 153.709 191.334 146.644C191.334 139.579 173.261 133.852 150.966 133.852C128.671 133.852 110.597 139.579 110.597 146.644C110.597 153.709 128.671 159.436 150.966 159.436Z" fill="url(#paint8_linear_15_4451)" shape-rendering="crispEdges"/>
</g>
<path fill-rule="evenodd" clip-rule="evenodd" d="M211.182 149.662C211.183 149.616 211.184 149.571 211.184 149.526C211.206 149.47 211.228 149.413 211.251 149.354L214.126 136.516C210.319 145.853 183.491 153.088 150.963 153.088C118.005 153.088 90.8993 145.661 87.6607 136.146L90.8191 149.906L90.8201 149.908C93.8732 163.197 117.797 171.896 150.956 171.896C180.382 171.896 205.01 164.009 210.184 153.6L210.692 151.851L211.182 149.662Z" fill="url(#paint9_linear_15_4451)" fill-opacity="0.5"/>
<g filter="url(#filter6_f_15_4451)">
<path fill-rule="evenodd" clip-rule="evenodd" d="M174.468 144.746C174.468 148.859 163.946 152.193 150.967 152.193C137.988 152.193 127.466 148.859 127.466 144.746C127.466 140.633 137.988 137.299 150.967 137.299C162.261 137.299 171.695 139.824 173.954 143.189H172.091C169.761 140.344 161.187 138.234 150.966 138.234C138.954 138.234 129.216 141.149 129.216 144.746C129.216 148.343 138.954 151.258 150.966 151.258C162.978 151.258 172.716 148.343 172.716 144.746C172.716 144.746 172.716 144.746 172.716 144.746H174.468C174.468 144.746 174.468 144.746 174.468 144.746Z" fill="url(#paint10_linear_15_4451)"/>
</g>
<g filter="url(#filter7_f_15_4451)">
<path d="M169.923 144.746C169.923 147.773 161.436 150.227 150.967 150.227C140.497 150.227 132.01 147.773 132.01 144.746C132.01 141.718 140.497 139.264 150.967 139.264C161.436 139.264 169.923 141.718 169.923 144.746Z" fill="#c9fa00"/>
</g>
<g opacity="0.4" filter="url(#filter8_f_15_4451)">
<path d="M150.949 175.905L91.5934 70.8363L210.002 70.8363L150.949 175.905Z" fill="url(#paint11_linear_15_4451)"/>
</g>
<g filter="url(#filter9_f_15_4451)">
<path fill-rule="evenodd" clip-rule="evenodd" d="M208.321 152.523L208.613 146.328C207.405 147.125 206.065 147.895 204.602 148.635C204.472 150.584 204.318 152.904 204.178 155.26C205.721 154.382 207.107 153.468 208.321 152.523ZM199.379 157.658L199.701 150.823C197.745 151.597 195.642 152.326 193.406 153.006C193.255 155.344 193.103 157.831 192.994 160.114C195.278 159.346 197.412 158.525 199.379 157.658ZM187.471 161.788L187.81 154.537C185.099 155.202 182.237 155.802 179.247 156.328C179.084 158.838 178.923 161.468 178.817 163.807C181.849 163.208 184.741 162.532 187.471 161.788Z" fill="#c9fa00" fill-opacity="0.1"/>
</g>
<g filter="url(#filter10_f_15_4451)">
<path d="M155.145 144.607C155.145 145.558 153.274 146.328 150.967 146.328C148.66 146.328 146.79 145.558 146.79 144.607C146.79 143.657 148.66 142.886 150.967 142.886C153.274 142.886 155.145 143.657 155.145 144.607Z" fill="#c9fa00"/>
</g>
<g filter="url(#filter11_f_15_4451)">
<path d="M148.096 159.266C130.588 158.989 114.114 155.175 107.536 153.075L106.871 158.6C110.403 160.511 114.452 161.939 120.332 163.125L120.55 161.53C122.041 161.908 126.499 162.439 128.541 162.657L128.712 160.26C135.576 161.505 143.625 161.694 147.839 161.793L147.896 161.794C147.893 161.605 148.035 160.643 148.096 159.266Z" fill="#c9fa00" fill-opacity="0.1"/>
</g>
<path fill-rule="evenodd" clip-rule="evenodd" d="M155.861 78.6583C158.059 77.1246 159.552 74.1338 159.552 70.6954C159.552 65.6938 156.394 61.6392 152.5 61.6392C148.605 61.6392 145.448 65.6938 145.448 70.6954C145.448 74.1338 146.94 77.1246 149.138 78.6583C145.447 79.6435 142.402 82.2122 140.776 85.5923C132.838 84.489 127.431 82.3002 127.431 79.7801C127.431 76.8715 134.634 74.4042 144.617 73.5378C144.531 73.1446 144.462 72.7421 144.412 72.3317C129.956 73.2596 119.247 76.6187 119.247 80.6204C119.247 84.1811 127.726 87.2331 139.779 88.5162C139.595 89.3889 139.497 90.2939 139.497 91.2217V103.964H144.808L145.058 109.468C134.846 108.637 127.431 106.14 127.431 103.189C127.431 100.973 131.613 99.0126 138.021 97.8218V96.3363C126.91 97.7192 119.247 100.644 119.247 104.029C119.247 108.102 130.341 111.51 145.189 112.365L145.812 126.105C145.845 126.851 146.46 127.438 147.207 127.438H157.792C158.539 127.438 159.154 126.851 159.188 126.105L159.81 112.365C174.656 111.509 185.748 108.102 185.748 104.029C185.748 100.645 178.087 97.7195 166.977 96.3365V97.8221C173.384 99.013 177.565 100.973 177.565 103.189C177.565 106.14 170.151 108.637 159.942 109.468L160.191 103.964H165.502V91.2216C165.502 90.2938 165.405 89.3887 165.22 88.5158C177.271 87.2325 185.748 84.1808 185.748 80.6204C185.748 76.6185 175.038 73.2592 160.581 72.3315C160.531 72.7419 160.463 73.1444 160.377 73.5376C170.361 74.4038 177.565 76.8713 177.565 79.7801C177.565 82.2998 172.159 84.4885 164.223 85.5919C162.597 82.212 159.552 79.6434 155.861 78.6583ZM144.094 119.17C129.799 120.127 119.247 123.466 119.247 127.438C119.247 132.156 134.134 135.981 152.498 135.981C170.862 135.981 185.748 132.156 185.748 127.438C185.748 123.466 175.196 120.127 160.902 119.17L160.846 120.396C170.586 121.298 177.565 123.734 177.565 126.597C177.565 130.227 166.342 133.17 152.498 133.17C138.654 133.17 127.431 130.227 127.431 126.597C127.431 123.734 134.409 121.298 144.149 120.396L144.094 119.17Z" fill="url(#paint12_linear_15_4451)"/>
<defs>
<filter id="filter0_f_15_4451" x="85.9438" y="113.977" width="130.045" height="40.5076" filterUnits="userSpaceOnUse" color-interpolation-filters="sRGB">
<feFlood flood-opacity="0" result="BackgroundImageFix"/>
<feBlend mode="normal" in="SourceGraphic" in2="BackgroundImageFix" result="shape"/>
<feGaussianBlur stdDeviation="0.69831" result="effect1_foregroundBlur_15_4451"/>
</filter>
<filter id="filter1_f_15_4451" x="149.569" y="132.834" width="68.1651" height="23.3963" filterUnits="userSpaceOnUse" color-interpolation-filters="sRGB">
<feFlood flood-opacity="0" result="BackgroundImageFix"/>
<feBlend mode="normal" in="SourceGraphic" in2="BackgroundImageFix" result="shape"/>
<feGaussianBlur stdDeviation="0.69831" result="effect1_foregroundBlur_15_4451"/>
</filter>
<filter id="filter2_f_15_4451" x="0.966824" y="0.803814" width="303.066" height="236.727" filterUnits="userSpaceOnUse" color-interpolation-filters="sRGB">
<feFlood flood-opacity="0" result="BackgroundImageFix"/>
<feBlend mode="normal" in="SourceGraphic" in2="BackgroundImageFix" result="shape"/>
<feGaussianBlur stdDeviation="20.9493" result="effect1_foregroundBlur_15_4451"/>
</filter>
<filter id="filter3_df_15_4451" x="85.3399" y="121.569" width="131.253" height="55.9133" filterUnits="userSpaceOnUse" color-interpolation-filters="sRGB">
<feFlood flood-opacity="0" result="BackgroundImageFix"/>
<feColorMatrix in="SourceAlpha" type="matrix" values="0 0 0 0 0 0 0 0 0 0 0 0 0 0 0 0 0 0 127 0" result="hardAlpha"/>
<feOffset/>
<feGaussianBlur stdDeviation="2.79324"/>
<feComposite in2="hardAlpha" operator="out"/>
<feColorMatrix type="matrix" values="0 0 0 0 0.3625 0 0 0 0 0.847 0 0 0 0 1 0 0 0 0.25 0"/>
<feBlend mode="normal" in2="BackgroundImageFix" result="effect1_dropShadow_15_4451"/>
<feBlend mode="normal" in="SourceGraphic" in2="effect1_dropShadow_15_4451" result="shape"/>
<feGaussianBlur stdDeviation="1.39662" result="effect2_foregroundBlur_15_4451"/>
</filter>
<filter id="filter4_f_15_4451" x="101.761" y="127.235" width="98.41" height="38.817" filterUnits="userSpaceOnUse" color-interpolation-filters="sRGB">
<feFlood flood-opacity="0" result="BackgroundImageFix"/>
<feBlend mode="normal" in="SourceGraphic" in2="BackgroundImageFix" result="shape"/>
<feGaussianBlur stdDeviation="2.79324" result="effect1_foregroundBlur_15_4451"/>
</filter>
<filter id="filter5_d_15_4451" x="94.7778" y="120.252" width="112.376" height="52.7832" filterUnits="userSpaceOnUse" color-interpolation-filters="sRGB">
<feFlood flood-opacity="0" result="BackgroundImageFix"/>
<feColorMatrix in="SourceAlpha" type="matrix" values="0 0 0 0 0 0 0 0 0 0 0 0 0 0 0 0 0 0 127 0" result="hardAlpha"/>
<feOffset/>
<feGaussianBlur stdDeviation="6.28479"/>
<feComposite in2="hardAlpha" operator="out"/>
<feColorMatrix type="matrix" values="0 0 0 0 0.141667 0 0 0 0 0.691 0 0 0 0 1 0 0 0 1 0"/>
<feBlend mode="normal" in2="BackgroundImageFix" result="effect1_dropShadow_15_4451"/>
<feBlend mode="normal" in="SourceGraphic" in2="effect1_dropShadow_15_4451" result="shape"/>
</filter>
<filter id="filter6_f_15_4451" x="126.069" y="135.902" width="49.7949" height="17.6873" filterUnits="userSpaceOnUse" color-interpolation-filters="sRGB">
<feFlood flood-opacity="0" result="BackgroundImageFix"/>
<feBlend mode="normal" in="SourceGraphic" in2="BackgroundImageFix" result="shape"/>
<feGaussianBlur stdDeviation="0.69831" result="effect1_foregroundBlur_15_4451"/>
</filter>
<filter id="filter7_f_15_4451" x="127.82" y="135.074" width="46.2926" height="19.3431" filterUnits="userSpaceOnUse" color-interpolation-filters="sRGB">
<feFlood flood-opacity="0" result="BackgroundImageFix"/>
<feBlend mode="normal" in="SourceGraphic" in2="BackgroundImageFix" result="shape"/>
<feGaussianBlur stdDeviation="2.09493" result="effect1_foregroundBlur_15_4451"/>
</filter>
<filter id="filter8_f_15_4451" x="83.2137" y="62.4566" width="135.168" height="121.828" filterUnits="userSpaceOnUse" color-interpolation-filters="sRGB">
<feFlood flood-opacity="0" result="BackgroundImageFix"/>
<feBlend mode="normal" in="SourceGraphic" in2="BackgroundImageFix" result="shape"/>
<feGaussianBlur stdDeviation="4.18986" result="effect1_foregroundBlur_15_4451"/>
</filter>
<filter id="filter9_f_15_4451" x="176.024" y="143.535" width="35.3824" height="23.0645" filterUnits="userSpaceOnUse" color-interpolation-filters="sRGB">
<feFlood flood-opacity="0" result="BackgroundImageFix"/>
<feBlend mode="normal" in="SourceGraphic" in2="BackgroundImageFix" result="shape"/>
<feGaussianBlur stdDeviation="1.39662" result="effect1_foregroundBlur_15_4451"/>
</filter>
<filter id="filter10_f_15_4451" x="141.203" y="137.299" width="19.528" height="14.6156" filterUnits="userSpaceOnUse" color-interpolation-filters="sRGB">
<feFlood flood-opacity="0" result="BackgroundImageFix"/>
<feBlend mode="normal" in="SourceGraphic" in2="BackgroundImageFix" result="shape"/>
<feGaussianBlur stdDeviation="2.79324" result="effect1_foregroundBlur_15_4451"/>
</filter>
<filter id="filter11_f_15_4451" x="104.077" y="150.282" width="46.8121" height="15.636" filterUnits="userSpaceOnUse" color-interpolation-filters="sRGB">
<feFlood flood-opacity="0" result="BackgroundImageFix"/>
<feBlend mode="normal" in="SourceGraphic" in2="BackgroundImageFix" result="shape"/>
<feGaussianBlur stdDeviation="1.39662" result="effect1_foregroundBlur_15_4451"/>
</filter>
<linearGradient id="paint0_linear_15_4451" x1="150.967" y1="115.373" x2="150.967" y2="153.088" gradientUnits="userSpaceOnUse">
<stop stop-color="#c9fa00" stop-opacity="0.5"/>
<stop offset="1" stop-color="#c9fa00" stop-opacity="0"/>
</linearGradient>
<linearGradient id="paint1_linear_15_4451" x1="150.967" y1="158.367" x2="150.967" y2="109.499" gradientUnits="userSpaceOnUse">
<stop stop-color="#c9fa00"/>
<stop offset="1" stop-color="#c9fa00" stop-opacity="0"/>
</linearGradient>
<linearGradient id="paint2_linear_15_4451" x1="153.556" y1="154.324" x2="212.369" y2="136.443" gradientUnits="userSpaceOnUse">
<stop stop-color="#E8FEFF" stop-opacity="0.772549"/>
<stop offset="0.599389" stop-color="#c9fa00"/>
<stop offset="1" stop-color="#E8FEFF" stop-opacity="0"/>
</linearGradient>
<linearGradient id="paint3_linear_15_4451" x1="150.967" y1="127.686" x2="150.967" y2="171.366" gradientUnits="userSpaceOnUse">
<stop stop-color="#c9fa00" stop-opacity="0.5"/>
<stop offset="1" stop-color="#c9fa00" stop-opacity="0"/>
</linearGradient>
<linearGradient id="paint4_linear_15_4451" x1="150.967" y1="127.156" x2="150.967" y2="171.896" gradientUnits="userSpaceOnUse">
<stop stop-color="#c9fa00" stop-opacity="0.5"/>
<stop offset="1" stop-color="#c9fa00" stop-opacity="0.9"/>
</linearGradient>
<linearGradient id="paint5_linear_15_4451" x1="151.247" y1="195.632" x2="151.247" y2="42.7024" gradientUnits="userSpaceOnUse">
<stop offset="0.250952" stop-color="#c9fa00" stop-opacity="0"/>
<stop offset="0.453702" stop-color="#c9fa00"/>
<stop offset="1" stop-color="#4F6200" stop-opacity="0"/>
</linearGradient>
<linearGradient id="paint6_linear_15_4451" x1="150.967" y1="127.156" x2="150.967" y2="171.896" gradientUnits="userSpaceOnUse">
<stop stop-color="#c9fa00" stop-opacity="0.5"/>
<stop offset="1" stop-color="#c9fa00" stop-opacity="0.9"/>
</linearGradient>
<linearGradient id="paint7_linear_15_4451" x1="150.967" y1="132.822" x2="150.967" y2="160.466" gradientUnits="userSpaceOnUse">
<stop stop-color="#c9fa00"/>
<stop offset="1" stop-color="#c9fa00" stop-opacity="0.6"/>
</linearGradient>
<linearGradient id="paint8_linear_15_4451" x1="150.967" y1="132.822" x2="150.967" y2="160.466" gradientUnits="userSpaceOnUse">
<stop stop-color="#c9fa00"/>
<stop offset="1" stop-color="#c9fa00" stop-opacity="0.6"/>
</linearGradient>
<linearGradient id="paint9_linear_15_4451" x1="76.7048" y1="154.021" x2="231.995" y2="154.021" gradientUnits="userSpaceOnUse">
<stop stop-color="#F1FFB7"/>
<stop offset="0.472727" stop-color="#c9fa00" stop-opacity="0"/>
<stop offset="1" stop-color="#F0FFB2"/>
</linearGradient>
<linearGradient id="paint10_linear_15_4451" x1="150.967" y1="137.299" x2="150.967" y2="152.193" gradientUnits="userSpaceOnUse">
<stop stop-color="#6A8400"/>
<stop offset="1" stop-color="#c9fa00" stop-opacity="0.6"/>
</linearGradient>
<linearGradient id="paint11_linear_15_4451" x1="150.948" y1="175.905" x2="150.948" y2="70.8363" gradientUnits="userSpaceOnUse">
<stop offset="0.250952" stop-color="#c9fa00" stop-opacity="0"/>
<stop offset="0.453702" stop-color="#c9fa00"/>
<stop offset="1" stop-color="#FBFFE9" stop-opacity="0"/>
</linearGradient>
<linearGradient id="paint12_linear_15_4451" x1="152.498" y1="98.81" x2="152.498" y2="156.744" gradientUnits="userSpaceOnUse">
<stop stop-color="white"/>
<stop offset="1" stop-color="white" stop-opacity="0"/>
</linearGradient>
</defs>
</svg>
